<?xml version="1.0" standalone="no"?>
<!DOCTYPE svg PUBLIC "-//W3C//DTD SVG 20010904//EN"
 "http://www.w3.org/TR/2001/REC-SVG-20010904/DTD/svg10.dtd">
<svg version="1.0" xmlns="http://www.w3.org/2000/svg"
 width="300.000000pt" height="300.000000pt" viewBox="0 0 300.000000 300.000000"
 preserveAspectRatio="xMidYMid meet">
<metadata>
Created by potrace 1.10, written by Peter Selinger 2001-2011
</metadata>
<g transform="translate(0.000000,300.000000) scale(0.100000,-0.100000)"
fill="#000000" stroke="none">
<path d="M1415 2433 c-40 -22 -96 -65 -135 -103 -87 -88 -137 -189 -190 -384
-69 -251 -111 -329 -251 -468 -55 -54 -99 -105 -99 -113 0 -9 6 -28 14 -43 17
-32 191 -203 374 -366 150 -135 223 -217 294 -328 50 -78 78 -99 103 -78 7 6
33 43 56 83 46 77 177 214 417 435 174 161 262 257 262 287 0 17 -32 56 -108
132 -95 95 -114 120 -155 203 -31 63 -61 148 -88 250 -70 266 -154 397 -309
483 -95 52 -104 53 -185 10z m164 -40 c154 -91 230 -208 297 -458 43 -163 77
-250 129 -330 43 -67 120 -152 187 -206 l47 -37 -77 -85 c-42 -47 -129 -132
-192 -188 -280 -253 -379 -361 -443 -481 l-25 -47 -47 82 c-50 86 -100 139
-515 539 l-184 177 50 39 c116 92 213 220 258 340 14 37 46 139 71 226 54 188
79 238 161 326 59 63 172 140 204 140 9 0 44 -17 79 -37z"/>
<path d="M1242 1916 c-10 -14 -42 -93 -71 -176 -28 -82 -74 -196 -101 -252
-85 -172 -75 -199 151 -434 88 -90 171 -182 185 -204 15 -22 29 -40 31 -40 5
0 -3 52 -19 125 -15 72 -47 129 -127 231 -62 79 -84 115 -130 214 -10 22 -11
19 -8 -27 4 -58 35 -112 125 -223 59 -72 95 -133 90 -156 -4 -18 -221 198
-273 270 -51 72 -48 110 19 255 29 64 68 161 86 216 41 125 66 175 87 175 9 0
56 -38 104 -85 55 -53 96 -85 110 -85 14 0 52 31 109 90 48 50 95 90 103 90
22 0 40 -38 92 -189 24 -70 65 -172 90 -227 59 -125 61 -162 11 -237 -40 -59
-276 -298 -276 -279 0 25 50 112 100 170 93 112 141 209 125 250 -4 12 -13 0
-29 -40 -22 -53 -53 -99 -161 -241 -24 -32 -53 -82 -64 -112 -19 -50 -44 -175
-37 -182 1 -2 17 17 34 41 18 25 102 117 186 205 223 232 230 253 142 440 -29
64 -72 173 -95 243 -80 240 -106 249 -251 87 l-78 -87 -94 99 c-103 109 -130
120 -166 75z"/>
<path d="M1170 1404 c0 -23 58 -94 115 -141 33 -27 75 -67 94 -88 36 -41 111
-188 111 -217 0 -10 5 -18 10 -18 6 0 10 8 10 18 0 33 78 181 120 226 23 24
66 63 96 87 47 36 104 109 104 133 0 9 -137 -112 -210 -185 -30 -31 -68 -81
-84 -112 -16 -32 -32 -57 -35 -57 -3 0 -26 34 -51 76 -31 52 -66 95 -110 132
-36 31 -89 78 -117 106 -29 28 -53 46 -53 40z"/>
</g>
</svg>
